<mxfile host="app.diagrams.net" modified="2023-10-09T01:27:45.968Z" agent="Mozilla/5.0 (Windows NT 10.0; Win64; x64) AppleWebKit/537.36 (KHTML, like Gecko) Chrome/119.0.0.0 Safari/537.36" etag="XMZKVFhpfwhw68pVYlq1" version="22.0.4" type="github">
  <diagram id="CZGxiTV1HHT-Hle2AOIO" name="Page-1">
    <mxGraphModel dx="2261" dy="1919" grid="0" gridSize="10" guides="1" tooltips="1" connect="1" arrows="1" fold="1" page="1" pageScale="1" pageWidth="827" pageHeight="1169" math="0" shadow="0">
      <root>
        <mxCell id="0" />
        <mxCell id="1" parent="0" />
        <mxCell id="zMtAbFJLzHjJMqz4dgE3-95" value="&lt;b&gt;&lt;font style=&quot;font-size: 18px&quot;&gt;???&lt;/font&gt;&lt;/b&gt;" style="ellipse;shape=cloud;whiteSpace=wrap;html=1;strokeColor=#B20000;strokeWidth=2;" parent="1" vertex="1">
          <mxGeometry x="800" y="429.5" width="220" height="125" as="geometry" />
        </mxCell>
        <mxCell id="tRS6Hl0KniXjDHovvrDN-4" value="" style="edgeStyle=orthogonalEdgeStyle;rounded=0;orthogonalLoop=1;jettySize=auto;html=1;" parent="1" source="tRS6Hl0KniXjDHovvrDN-2" target="tRS6Hl0KniXjDHovvrDN-3" edge="1">
          <mxGeometry relative="1" as="geometry" />
        </mxCell>
        <mxCell id="tRS6Hl0KniXjDHovvrDN-2" value="饼干" style="rounded=0;whiteSpace=wrap;html=1;" parent="1" vertex="1">
          <mxGeometry x="360" y="35" width="70" height="20" as="geometry" />
        </mxCell>
        <mxCell id="tRS6Hl0KniXjDHovvrDN-6" value="" style="edgeStyle=orthogonalEdgeStyle;rounded=0;orthogonalLoop=1;jettySize=auto;html=1;" parent="1" source="tRS6Hl0KniXjDHovvrDN-3" target="tRS6Hl0KniXjDHovvrDN-5" edge="1">
          <mxGeometry relative="1" as="geometry" />
        </mxCell>
        <mxCell id="tRS6Hl0KniXjDHovvrDN-3" value="牛奶" style="rounded=0;whiteSpace=wrap;html=1;" parent="1" vertex="1">
          <mxGeometry x="360" y="105" width="70" height="20" as="geometry" />
        </mxCell>
        <mxCell id="zMtAbFJLzHjJMqz4dgE3-47" value="" style="edgeStyle=orthogonalEdgeStyle;rounded=0;orthogonalLoop=1;jettySize=auto;html=1;strokeColor=#B20000;strokeWidth=1;" parent="1" source="tRS6Hl0KniXjDHovvrDN-5" target="zMtAbFJLzHjJMqz4dgE3-46" edge="1">
          <mxGeometry relative="1" as="geometry" />
        </mxCell>
        <mxCell id="tRS6Hl0KniXjDHovvrDN-5" value="麦管" style="rounded=0;whiteSpace=wrap;html=1;" parent="1" vertex="1">
          <mxGeometry x="360" y="165" width="70" height="20" as="geometry" />
        </mxCell>
        <mxCell id="zMtAbFJLzHjJMqz4dgE3-46" value="照镜子" style="rounded=0;whiteSpace=wrap;html=1;" parent="1" vertex="1">
          <mxGeometry x="360" y="265" width="70" height="20" as="geometry" />
        </mxCell>
        <mxCell id="tRS6Hl0KniXjDHovvrDN-10" value="" style="edgeStyle=elbowEdgeStyle;elbow=horizontal;endArrow=classic;html=1;entryX=0;entryY=0.5;entryDx=0;entryDy=0;exitX=1;exitY=0.5;exitDx=0;exitDy=0;" parent="1" source="zMtAbFJLzHjJMqz4dgE3-3" target="tRS6Hl0KniXjDHovvrDN-2" edge="1">
          <mxGeometry width="50" height="50" relative="1" as="geometry">
            <mxPoint x="220" y="115" as="sourcePoint" />
            <mxPoint x="210" y="215" as="targetPoint" />
            <Array as="points">
              <mxPoint x="330" y="85" />
            </Array>
          </mxGeometry>
        </mxCell>
        <mxCell id="tRS6Hl0KniXjDHovvrDN-11" value="" style="edgeStyle=elbowEdgeStyle;elbow=horizontal;endArrow=classic;html=1;entryX=0;entryY=0.5;entryDx=0;entryDy=0;exitX=1;exitY=0.5;exitDx=0;exitDy=0;" parent="1" source="zMtAbFJLzHjJMqz4dgE3-2" target="tRS6Hl0KniXjDHovvrDN-5" edge="1">
          <mxGeometry width="50" height="50" relative="1" as="geometry">
            <mxPoint x="220" y="115" as="sourcePoint" />
            <mxPoint x="370" y="55" as="targetPoint" />
            <Array as="points">
              <mxPoint x="330" y="145" />
            </Array>
          </mxGeometry>
        </mxCell>
        <mxCell id="zMtAbFJLzHjJMqz4dgE3-1" value="&lt;b&gt;要是你给老鼠吃饼干&amp;amp;笔记&lt;/b&gt;" style="text;html=1;align=center;verticalAlign=middle;resizable=0;points=[];autosize=1;" parent="1" vertex="1">
          <mxGeometry x="250" y="565" width="160" height="20" as="geometry" />
        </mxCell>
        <mxCell id="zMtAbFJLzHjJMqz4dgE3-3" value="细胞里面的基因分子通过经验记忆想吃饼干" style="rounded=1;whiteSpace=wrap;html=1;" parent="1" vertex="1">
          <mxGeometry x="40" y="85" width="100" height="45" as="geometry" />
        </mxCell>
        <mxCell id="zMtAbFJLzHjJMqz4dgE3-44" value="" style="edgeStyle=orthogonalEdgeStyle;rounded=0;orthogonalLoop=1;jettySize=auto;html=1;strokeColor=#B20000;strokeWidth=1;entryX=0.5;entryY=1;entryDx=0;entryDy=0;" parent="1" source="zMtAbFJLzHjJMqz4dgE3-4" target="zMtAbFJLzHjJMqz4dgE3-3" edge="1">
          <mxGeometry relative="1" as="geometry">
            <mxPoint x="75" y="85" as="targetPoint" />
          </mxGeometry>
        </mxCell>
        <mxCell id="zMtAbFJLzHjJMqz4dgE3-4" value="&lt;b&gt;饼干的诱惑&lt;br&gt;（触发器）&lt;/b&gt;" style="strokeWidth=2;html=1;shape=mxgraph.flowchart.terminator;whiteSpace=wrap;" parent="1" vertex="1">
          <mxGeometry x="52.5" y="166" width="75" height="40" as="geometry" />
        </mxCell>
        <mxCell id="zMtAbFJLzHjJMqz4dgE3-41" value="" style="group" parent="1" vertex="1" connectable="0">
          <mxGeometry x="35" y="-502" width="806" height="251" as="geometry" />
        </mxCell>
        <mxCell id="zMtAbFJLzHjJMqz4dgE3-36" value="" style="group" parent="zMtAbFJLzHjJMqz4dgE3-41" vertex="1" connectable="0">
          <mxGeometry width="806" height="251" as="geometry" />
        </mxCell>
        <mxCell id="zMtAbFJLzHjJMqz4dgE3-28" value="" style="endArrow=none;html=1;strokeColor=#B20000;strokeWidth=5;entryX=0;entryY=0.75;entryDx=0;entryDy=0;fillColor=#e51400;" parent="zMtAbFJLzHjJMqz4dgE3-36" target="zMtAbFJLzHjJMqz4dgE3-17" edge="1">
          <mxGeometry width="50" height="50" relative="1" as="geometry">
            <mxPoint x="30" y="114.36619718309859" as="sourcePoint" />
            <mxPoint x="150" y="111.40845070422536" as="targetPoint" />
          </mxGeometry>
        </mxCell>
        <mxCell id="zMtAbFJLzHjJMqz4dgE3-9" value="生&lt;br&gt;物&lt;br&gt;圈" style="rounded=1;whiteSpace=wrap;html=1;fontStyle=1;fillColor=#008a00;strokeColor=#005700;fontColor=#ffffff;" parent="zMtAbFJLzHjJMqz4dgE3-36" vertex="1">
          <mxGeometry y="62.11267605633803" width="30" height="69.01408450704226" as="geometry" />
        </mxCell>
        <mxCell id="zMtAbFJLzHjJMqz4dgE3-25" value="" style="edgeStyle=orthogonalEdgeStyle;rounded=0;orthogonalLoop=1;jettySize=auto;html=1;dashed=1;strokeWidth=2;strokeColor=#005700;fillColor=#008a00;" parent="zMtAbFJLzHjJMqz4dgE3-36" source="zMtAbFJLzHjJMqz4dgE3-10" target="zMtAbFJLzHjJMqz4dgE3-9" edge="1">
          <mxGeometry relative="1" as="geometry" />
        </mxCell>
        <mxCell id="zMtAbFJLzHjJMqz4dgE3-10" value="生&lt;br&gt;态&lt;br&gt;系&lt;br&gt;统" style="rounded=1;whiteSpace=wrap;html=1;fontStyle=1;fillColor=#008a00;strokeColor=#005700;fontColor=#ffffff;" parent="zMtAbFJLzHjJMqz4dgE3-36" vertex="1">
          <mxGeometry x="80" y="62.11267605633803" width="30" height="69.01408450704226" as="geometry" />
        </mxCell>
        <mxCell id="zMtAbFJLzHjJMqz4dgE3-24" value="" style="edgeStyle=orthogonalEdgeStyle;rounded=0;orthogonalLoop=1;jettySize=auto;html=1;dashed=1;strokeWidth=2;strokeColor=#005700;fillColor=#008a00;" parent="zMtAbFJLzHjJMqz4dgE3-36" source="zMtAbFJLzHjJMqz4dgE3-11" target="zMtAbFJLzHjJMqz4dgE3-10" edge="1">
          <mxGeometry relative="1" as="geometry" />
        </mxCell>
        <mxCell id="zMtAbFJLzHjJMqz4dgE3-11" value="群&lt;br&gt;落" style="rounded=1;whiteSpace=wrap;html=1;fontStyle=1;fillColor=#008a00;strokeColor=#005700;fontColor=#ffffff;" parent="zMtAbFJLzHjJMqz4dgE3-36" vertex="1">
          <mxGeometry x="160" y="62.11267605633803" width="30" height="69.01408450704226" as="geometry" />
        </mxCell>
        <mxCell id="zMtAbFJLzHjJMqz4dgE3-12" value="器&lt;br&gt;官" style="rounded=1;whiteSpace=wrap;html=1;fontStyle=1" parent="zMtAbFJLzHjJMqz4dgE3-36" vertex="1">
          <mxGeometry x="480" y="62.11267605633803" width="30" height="69.01408450704226" as="geometry" />
        </mxCell>
        <mxCell id="zMtAbFJLzHjJMqz4dgE3-19" value="" style="edgeStyle=orthogonalEdgeStyle;rounded=0;orthogonalLoop=1;jettySize=auto;html=1;strokeWidth=2;dashed=1;" parent="zMtAbFJLzHjJMqz4dgE3-36" source="zMtAbFJLzHjJMqz4dgE3-13" target="zMtAbFJLzHjJMqz4dgE3-12" edge="1">
          <mxGeometry relative="1" as="geometry" />
        </mxCell>
        <mxCell id="zMtAbFJLzHjJMqz4dgE3-13" value="系&lt;br&gt;统" style="rounded=1;whiteSpace=wrap;html=1;fontStyle=1;fillColor=#0050ef;strokeColor=#001DBC;fontColor=#ffffff;" parent="zMtAbFJLzHjJMqz4dgE3-36" vertex="1">
          <mxGeometry x="400" y="62.11267605633803" width="30" height="69.01408450704226" as="geometry" />
        </mxCell>
        <mxCell id="zMtAbFJLzHjJMqz4dgE3-18" value="" style="edgeStyle=orthogonalEdgeStyle;rounded=0;orthogonalLoop=1;jettySize=auto;html=1;strokeWidth=2;dashed=1;" parent="zMtAbFJLzHjJMqz4dgE3-36" source="zMtAbFJLzHjJMqz4dgE3-14" target="zMtAbFJLzHjJMqz4dgE3-13" edge="1">
          <mxGeometry relative="1" as="geometry" />
        </mxCell>
        <mxCell id="zMtAbFJLzHjJMqz4dgE3-14" value="个&lt;br&gt;体" style="rounded=1;whiteSpace=wrap;html=1;fontStyle=1;fillColor=#d80073;strokeColor=#A50040;fontColor=#ffffff;" parent="zMtAbFJLzHjJMqz4dgE3-36" vertex="1">
          <mxGeometry x="320" y="62.11267605633803" width="30" height="69.01408450704226" as="geometry" />
        </mxCell>
        <mxCell id="zMtAbFJLzHjJMqz4dgE3-23" value="" style="edgeStyle=orthogonalEdgeStyle;rounded=0;orthogonalLoop=1;jettySize=auto;html=1;dashed=1;strokeWidth=2;strokeColor=#005700;fillColor=#008a00;" parent="zMtAbFJLzHjJMqz4dgE3-36" source="zMtAbFJLzHjJMqz4dgE3-15" target="zMtAbFJLzHjJMqz4dgE3-11" edge="1">
          <mxGeometry relative="1" as="geometry" />
        </mxCell>
        <mxCell id="zMtAbFJLzHjJMqz4dgE3-15" value="种&lt;br&gt;群" style="rounded=1;whiteSpace=wrap;html=1;fontStyle=1;fillColor=#008a00;strokeColor=#005700;fontColor=#ffffff;" parent="zMtAbFJLzHjJMqz4dgE3-36" vertex="1">
          <mxGeometry x="240" y="62.11267605633803" width="30" height="69.01408450704226" as="geometry" />
        </mxCell>
        <mxCell id="zMtAbFJLzHjJMqz4dgE3-22" value="" style="edgeStyle=orthogonalEdgeStyle;rounded=0;orthogonalLoop=1;jettySize=auto;html=1;dashed=1;strokeWidth=2;strokeColor=#990000;" parent="zMtAbFJLzHjJMqz4dgE3-36" source="zMtAbFJLzHjJMqz4dgE3-14" target="zMtAbFJLzHjJMqz4dgE3-15" edge="1">
          <mxGeometry relative="1" as="geometry" />
        </mxCell>
        <mxCell id="zMtAbFJLzHjJMqz4dgE3-16" value="组&lt;br&gt;织" style="rounded=1;whiteSpace=wrap;html=1;fontStyle=1;fillColor=#0050ef;strokeColor=#001DBC;fontColor=#ffffff;" parent="zMtAbFJLzHjJMqz4dgE3-36" vertex="1">
          <mxGeometry x="560" y="62.11267605633803" width="30" height="69.01408450704226" as="geometry" />
        </mxCell>
        <mxCell id="zMtAbFJLzHjJMqz4dgE3-20" value="" style="edgeStyle=orthogonalEdgeStyle;rounded=0;orthogonalLoop=1;jettySize=auto;html=1;strokeWidth=2;dashed=1;strokeColor=#0000FF;" parent="zMtAbFJLzHjJMqz4dgE3-36" source="zMtAbFJLzHjJMqz4dgE3-12" target="zMtAbFJLzHjJMqz4dgE3-16" edge="1">
          <mxGeometry relative="1" as="geometry" />
        </mxCell>
        <mxCell id="zMtAbFJLzHjJMqz4dgE3-17" value="细&lt;br&gt;胞" style="rounded=1;whiteSpace=wrap;html=1;fontStyle=1;fillColor=#0050ef;strokeColor=#001DBC;fontColor=#ffffff;" parent="zMtAbFJLzHjJMqz4dgE3-36" vertex="1">
          <mxGeometry x="640" y="62.11267605633803" width="30" height="69.01408450704226" as="geometry" />
        </mxCell>
        <mxCell id="zMtAbFJLzHjJMqz4dgE3-21" value="" style="edgeStyle=orthogonalEdgeStyle;rounded=0;orthogonalLoop=1;jettySize=auto;html=1;strokeWidth=2;dashed=1;strokeColor=#0000FF;" parent="zMtAbFJLzHjJMqz4dgE3-36" source="zMtAbFJLzHjJMqz4dgE3-16" target="zMtAbFJLzHjJMqz4dgE3-17" edge="1">
          <mxGeometry relative="1" as="geometry" />
        </mxCell>
        <mxCell id="zMtAbFJLzHjJMqz4dgE3-26" value="" style="edgeStyle=orthogonalEdgeStyle;rounded=0;orthogonalLoop=1;jettySize=auto;html=1;strokeWidth=2;dashed=1;strokeColor=#0000FF;" parent="zMtAbFJLzHjJMqz4dgE3-36" edge="1">
          <mxGeometry relative="1" as="geometry">
            <mxPoint x="430" y="96.12676056338029" as="sourcePoint" />
            <mxPoint x="480" y="96.12676056338029" as="targetPoint" />
          </mxGeometry>
        </mxCell>
        <mxCell id="zMtAbFJLzHjJMqz4dgE3-27" value="" style="edgeStyle=orthogonalEdgeStyle;rounded=0;orthogonalLoop=1;jettySize=auto;html=1;strokeWidth=2;dashed=1;strokeColor=#0000FF;" parent="zMtAbFJLzHjJMqz4dgE3-36" edge="1">
          <mxGeometry relative="1" as="geometry">
            <mxPoint x="350" y="96.12676056338029" as="sourcePoint" />
            <mxPoint x="400" y="96.12676056338029" as="targetPoint" />
          </mxGeometry>
        </mxCell>
        <mxCell id="zMtAbFJLzHjJMqz4dgE3-29" value="器&lt;br&gt;官" style="rounded=1;whiteSpace=wrap;html=1;fontStyle=1;fillColor=#0050ef;strokeColor=#001DBC;fontColor=#ffffff;" parent="zMtAbFJLzHjJMqz4dgE3-36" vertex="1">
          <mxGeometry x="480" y="62.11267605633803" width="30" height="69.01408450704226" as="geometry" />
        </mxCell>
        <mxCell id="zMtAbFJLzHjJMqz4dgE3-30" value="" style="endArrow=classic;html=1;strokeColor=#001DBC;strokeWidth=1;fillColor=#0050ef;" parent="zMtAbFJLzHjJMqz4dgE3-36" edge="1">
          <mxGeometry width="50" height="50" relative="1" as="geometry">
            <mxPoint x="361" y="22.676056338028168" as="sourcePoint" />
            <mxPoint x="651" y="22.676056338028168" as="targetPoint" />
          </mxGeometry>
        </mxCell>
        <mxCell id="zMtAbFJLzHjJMqz4dgE3-31" value="" style="endArrow=classic;html=1;strokeColor=#6F0000;strokeWidth=1;fillColor=#a20025;" parent="zMtAbFJLzHjJMqz4dgE3-36" edge="1">
          <mxGeometry width="50" height="50" relative="1" as="geometry">
            <mxPoint x="310" y="22.676056338028168" as="sourcePoint" />
            <mxPoint x="10" y="22.676056338028168" as="targetPoint" />
          </mxGeometry>
        </mxCell>
        <mxCell id="zMtAbFJLzHjJMqz4dgE3-32" value="&lt;b&gt;&lt;font color=&quot;#008a00&quot; style=&quot;font-size: 18px&quot;&gt;宏观&lt;/font&gt;&lt;/b&gt;" style="text;html=1;align=center;verticalAlign=middle;resizable=0;points=[];autosize=1;" parent="zMtAbFJLzHjJMqz4dgE3-36" vertex="1">
          <mxGeometry x="111" y="-7" width="54" height="34" as="geometry" />
        </mxCell>
        <mxCell id="zMtAbFJLzHjJMqz4dgE3-33" value="&lt;b&gt;&lt;font color=&quot;#0000ff&quot; style=&quot;font-size: 18px&quot;&gt;微观&lt;/font&gt;&lt;/b&gt;" style="text;html=1;align=center;verticalAlign=middle;resizable=0;points=[];autosize=1;" parent="zMtAbFJLzHjJMqz4dgE3-36" vertex="1">
          <mxGeometry x="458" y="-7" width="54" height="34" as="geometry" />
        </mxCell>
        <mxCell id="zMtAbFJLzHjJMqz4dgE3-34" value="" style="shape=partialRectangle;whiteSpace=wrap;html=1;top=0;left=0;fillColor=none;strokeColor=#B20000;strokeWidth=5;" parent="zMtAbFJLzHjJMqz4dgE3-36" vertex="1">
          <mxGeometry x="-7" y="138.03" width="690" height="112.97" as="geometry" />
        </mxCell>
        <mxCell id="zMtAbFJLzHjJMqz4dgE3-35" value="&lt;b&gt;&lt;font style=&quot;font-size: 18px&quot;&gt;生命系统的结构层次与情绪关系&lt;/font&gt;&lt;/b&gt;" style="text;html=1;align=center;verticalAlign=middle;resizable=0;points=[];autosize=1;" parent="zMtAbFJLzHjJMqz4dgE3-36" vertex="1">
          <mxGeometry x="414" y="222.99985915492957" width="270" height="20" as="geometry" />
        </mxCell>
        <mxCell id="aU6ZqE62vAwaajKzGN5h-1" value="&lt;div style=&quot;text-align: left;&quot;&gt;&lt;span style=&quot;background-color: initial;&quot;&gt;我们注定是一个伟大的民族文化个体，基因里面透露着自身值得骄傲的文化素养，&lt;b&gt;&lt;font color=&quot;#333333&quot;&gt;它们是：&lt;/font&gt;&lt;/b&gt;&lt;/span&gt;&lt;/div&gt;&lt;div style=&quot;text-align: left;&quot;&gt;&lt;span style=&quot;background-color: initial;&quot;&gt;&lt;b&gt;&lt;font color=&quot;#333333&quot;&gt;自信、宽容、理解、虔诚、敬畏、朴素、勇敢、理智、遵从内心最原始的大爱。&lt;/font&gt;&lt;/b&gt;&lt;/span&gt;&lt;/div&gt;&lt;div style=&quot;text-align: left;&quot;&gt;为什么要崇拜外来新颖而奇怪的魑魅魍魉&lt;span style=&quot;background-color: initial;&quot;&gt;？值得我们认可为好的东西——“欧洲文艺复兴”里面&lt;/span&gt;&lt;/div&gt;&lt;div style=&quot;text-align: left;&quot;&gt;&lt;span style=&quot;background-color: initial;&quot;&gt;的很多东西都是受到我们文化的影响而产生。&lt;b&gt;&lt;font color=&quot;#0000ff&quot;&gt;只不过&lt;/font&gt;&lt;/b&gt;&lt;/span&gt;&lt;span style=&quot;background-color: initial;&quot;&gt;&lt;b&gt;&lt;font color=&quot;#0000ff&quot;&gt;我们习惯了自己的语言讲事实，而不觉得高级的一种习以为常。&lt;/font&gt;&lt;/b&gt;&lt;/span&gt;&lt;/div&gt;&lt;div style=&quot;text-align: left;&quot;&gt;&lt;span style=&quot;background-color: initial;&quot;&gt;&lt;b&gt;&lt;font color=&quot;#0000ff&quot;&gt;一旦用西欧或其它语言重述一遍，我们便觉得新颖，于是错误的认为是外来的文化、新颖而带来了高级感。&lt;/font&gt;&lt;/b&gt;&lt;/span&gt;&lt;/div&gt;&lt;div style=&quot;text-align: left;&quot;&gt;&lt;span style=&quot;background-color: initial;&quot;&gt;——仅此而已（这叫家门口没有风景的俗语）&lt;/span&gt;&lt;/div&gt;" style="text;html=1;align=center;verticalAlign=middle;resizable=0;points=[];autosize=1;strokeColor=none;fillColor=none;" parent="zMtAbFJLzHjJMqz4dgE3-36" vertex="1">
          <mxGeometry x="3" y="135" width="630" height="98" as="geometry" />
        </mxCell>
        <mxCell id="zMtAbFJLzHjJMqz4dgE3-40" value="由此可见，一个人的品性、一个群落的社会文化，它不是个体及群落的表面现象&lt;b&gt;&lt;font color=&quot;#0000ff&quot;&gt;（如果再有后天干预性“培育”只能适得其反，而我们一直都在做）&lt;/font&gt;&lt;/b&gt;，&lt;br&gt;是最底层的细胞，细胞来自遗传，组成个体的基因是关键，更是这个种群的关键" style="text;html=1;align=left;verticalAlign=middle;resizable=0;points=[];autosize=1;" parent="zMtAbFJLzHjJMqz4dgE3-36" vertex="1">
          <mxGeometry x="2" y="22.997464788732373" width="798" height="41" as="geometry" />
        </mxCell>
        <mxCell id="zMtAbFJLzHjJMqz4dgE3-37" value="&lt;span style=&quot;font-size: 10px&quot;&gt;悦&lt;/span&gt;" style="ellipse;whiteSpace=wrap;html=1;aspect=fixed;strokeColor=#B20000;strokeWidth=2;fillColor=#e51400;fontColor=#ffffff;" parent="zMtAbFJLzHjJMqz4dgE3-41" vertex="1">
          <mxGeometry x="671" y="57" width="23" height="23" as="geometry" />
        </mxCell>
        <mxCell id="zMtAbFJLzHjJMqz4dgE3-38" value="&lt;span style=&quot;font-size: 10px&quot;&gt;悦&lt;/span&gt;" style="ellipse;whiteSpace=wrap;html=1;aspect=fixed;strokeColor=#B20000;strokeWidth=2;fillColor=#e51400;fontColor=#ffffff;" parent="zMtAbFJLzHjJMqz4dgE3-41" vertex="1">
          <mxGeometry x="671" y="84" width="23" height="23" as="geometry" />
        </mxCell>
        <mxCell id="zMtAbFJLzHjJMqz4dgE3-39" value="&lt;span style=&quot;font-size: 10px&quot;&gt;悦&lt;/span&gt;" style="ellipse;whiteSpace=wrap;html=1;aspect=fixed;strokeColor=#B20000;strokeWidth=2;fillColor=#e51400;fontColor=#ffffff;" parent="zMtAbFJLzHjJMqz4dgE3-41" vertex="1">
          <mxGeometry x="671" y="110" width="23" height="23" as="geometry" />
        </mxCell>
        <mxCell id="zMtAbFJLzHjJMqz4dgE3-2" value="事件的发展顺序：&lt;br&gt;&lt;br&gt;是由高级智商的方法论驱使的" style="text;html=1;align=center;verticalAlign=middle;resizable=0;points=[];autosize=1;" parent="1" vertex="1">
          <mxGeometry x="155" y="82.5" width="170" height="50" as="geometry" />
        </mxCell>
        <mxCell id="zMtAbFJLzHjJMqz4dgE3-45" value="" style="edgeStyle=elbowEdgeStyle;elbow=horizontal;endArrow=classic;html=1;entryX=0;entryY=0.5;entryDx=0;entryDy=0;exitX=1;exitY=0.5;exitDx=0;exitDy=0;" parent="1" source="zMtAbFJLzHjJMqz4dgE3-3" target="zMtAbFJLzHjJMqz4dgE3-2" edge="1">
          <mxGeometry width="50" height="50" relative="1" as="geometry">
            <mxPoint x="140" y="107.5" as="sourcePoint" />
            <mxPoint x="360" y="175" as="targetPoint" />
            <Array as="points" />
          </mxGeometry>
        </mxCell>
        <mxCell id="zMtAbFJLzHjJMqz4dgE3-48" value="这&lt;br&gt;是&lt;br&gt;生&lt;br&gt;活" style="text;html=1;align=center;verticalAlign=middle;resizable=0;points=[];autosize=1;" parent="1" vertex="1">
          <mxGeometry x="370" y="185" width="30" height="60" as="geometry" />
        </mxCell>
        <mxCell id="zMtAbFJLzHjJMqz4dgE3-50" value="&lt;br&gt;习&lt;br&gt;惯&lt;br&gt;驱&lt;br&gt;使" style="text;html=1;align=center;verticalAlign=middle;resizable=0;points=[];autosize=1;" parent="1" vertex="1">
          <mxGeometry x="390" y="185" width="30" height="80" as="geometry" />
        </mxCell>
        <mxCell id="zMtAbFJLzHjJMqz4dgE3-56" value="" style="edgeStyle=orthogonalEdgeStyle;rounded=0;orthogonalLoop=1;jettySize=auto;html=1;strokeColor=#B20000;strokeWidth=1;entryX=0.5;entryY=0;entryDx=0;entryDy=0;" parent="1" source="zMtAbFJLzHjJMqz4dgE3-51" target="zMtAbFJLzHjJMqz4dgE3-52" edge="1">
          <mxGeometry relative="1" as="geometry" />
        </mxCell>
        <mxCell id="zMtAbFJLzHjJMqz4dgE3-51" value="剪头发" style="rounded=0;whiteSpace=wrap;html=1;" parent="1" vertex="1">
          <mxGeometry x="500" y="215" width="70" height="20" as="geometry" />
        </mxCell>
        <mxCell id="zMtAbFJLzHjJMqz4dgE3-58" value="" style="edgeStyle=orthogonalEdgeStyle;rounded=0;orthogonalLoop=1;jettySize=auto;html=1;strokeColor=#B20000;strokeWidth=1;entryX=0.5;entryY=0;entryDx=0;entryDy=0;" parent="1" source="zMtAbFJLzHjJMqz4dgE3-52" target="zMtAbFJLzHjJMqz4dgE3-53" edge="1">
          <mxGeometry relative="1" as="geometry">
            <mxPoint x="535" y="355" as="targetPoint" />
          </mxGeometry>
        </mxCell>
        <mxCell id="zMtAbFJLzHjJMqz4dgE3-52" value="打扫卫生" style="rounded=0;whiteSpace=wrap;html=1;" parent="1" vertex="1">
          <mxGeometry x="500" y="255" width="70" height="20" as="geometry" />
        </mxCell>
        <mxCell id="zMtAbFJLzHjJMqz4dgE3-60" value="" style="edgeStyle=orthogonalEdgeStyle;rounded=0;orthogonalLoop=1;jettySize=auto;html=1;strokeColor=#B20000;strokeWidth=1;" parent="1" source="zMtAbFJLzHjJMqz4dgE3-53" target="zMtAbFJLzHjJMqz4dgE3-59" edge="1">
          <mxGeometry relative="1" as="geometry" />
        </mxCell>
        <mxCell id="zMtAbFJLzHjJMqz4dgE3-53" value="累了睡觉" style="rounded=0;whiteSpace=wrap;html=1;" parent="1" vertex="1">
          <mxGeometry x="500" y="295" width="70" height="20" as="geometry" />
        </mxCell>
        <mxCell id="zMtAbFJLzHjJMqz4dgE3-59" value="听书看画" style="rounded=0;whiteSpace=wrap;html=1;" parent="1" vertex="1">
          <mxGeometry x="500" y="395" width="70" height="20" as="geometry" />
        </mxCell>
        <mxCell id="zMtAbFJLzHjJMqz4dgE3-54" value="" style="edgeStyle=elbowEdgeStyle;elbow=horizontal;endArrow=classic;html=1;entryX=0;entryY=0.5;entryDx=0;entryDy=0;exitX=1;exitY=0.5;exitDx=0;exitDy=0;" parent="1" source="zMtAbFJLzHjJMqz4dgE3-46" target="zMtAbFJLzHjJMqz4dgE3-51" edge="1">
          <mxGeometry width="50" height="50" relative="1" as="geometry">
            <mxPoint x="150" y="117.5" as="sourcePoint" />
            <mxPoint x="370" y="55" as="targetPoint" />
            <Array as="points">
              <mxPoint x="470" y="255" />
            </Array>
          </mxGeometry>
        </mxCell>
        <mxCell id="zMtAbFJLzHjJMqz4dgE3-55" value="" style="edgeStyle=elbowEdgeStyle;elbow=horizontal;endArrow=classic;html=1;entryX=0;entryY=0.5;entryDx=0;entryDy=0;exitX=1;exitY=0.5;exitDx=0;exitDy=0;" parent="1" source="zMtAbFJLzHjJMqz4dgE3-46" target="zMtAbFJLzHjJMqz4dgE3-53" edge="1">
          <mxGeometry width="50" height="50" relative="1" as="geometry">
            <mxPoint x="440" y="290" as="sourcePoint" />
            <mxPoint x="510" y="235" as="targetPoint" />
            <Array as="points">
              <mxPoint x="470" y="285" />
            </Array>
          </mxGeometry>
        </mxCell>
        <mxCell id="zMtAbFJLzHjJMqz4dgE3-61" value="故&lt;br&gt;事&lt;br&gt;发&lt;br&gt;展&lt;br&gt;的" style="text;html=1;align=center;verticalAlign=middle;resizable=0;points=[];autosize=1;" parent="1" vertex="1">
          <mxGeometry x="510" y="310" width="30" height="80" as="geometry" />
        </mxCell>
        <mxCell id="zMtAbFJLzHjJMqz4dgE3-62" value="又&lt;br&gt;一&lt;br&gt;个&lt;br&gt;拐&lt;br&gt;点" style="text;html=1;align=center;verticalAlign=middle;resizable=0;points=[];autosize=1;" parent="1" vertex="1">
          <mxGeometry x="532" y="318" width="30" height="80" as="geometry" />
        </mxCell>
        <mxCell id="zMtAbFJLzHjJMqz4dgE3-63" value="" style="edgeStyle=orthogonalEdgeStyle;rounded=0;orthogonalLoop=1;jettySize=auto;html=1;strokeColor=#B20000;strokeWidth=1;entryX=0.5;entryY=0;entryDx=0;entryDy=0;" parent="1" source="zMtAbFJLzHjJMqz4dgE3-64" target="zMtAbFJLzHjJMqz4dgE3-66" edge="1">
          <mxGeometry relative="1" as="geometry" />
        </mxCell>
        <mxCell id="zMtAbFJLzHjJMqz4dgE3-64" value="画画" style="rounded=0;whiteSpace=wrap;html=1;" parent="1" vertex="1">
          <mxGeometry x="624" y="355" width="70" height="20" as="geometry" />
        </mxCell>
        <mxCell id="zMtAbFJLzHjJMqz4dgE3-65" value="" style="edgeStyle=orthogonalEdgeStyle;rounded=0;orthogonalLoop=1;jettySize=auto;html=1;strokeColor=#B20000;strokeWidth=1;entryX=0.5;entryY=0;entryDx=0;entryDy=0;" parent="1" source="zMtAbFJLzHjJMqz4dgE3-66" target="zMtAbFJLzHjJMqz4dgE3-67" edge="1">
          <mxGeometry relative="1" as="geometry">
            <mxPoint x="659" y="495" as="targetPoint" />
          </mxGeometry>
        </mxCell>
        <mxCell id="zMtAbFJLzHjJMqz4dgE3-66" value="签名" style="rounded=0;whiteSpace=wrap;html=1;" parent="1" vertex="1">
          <mxGeometry x="624" y="395" width="70" height="20" as="geometry" />
        </mxCell>
        <mxCell id="zMtAbFJLzHjJMqz4dgE3-71" value="" style="edgeStyle=orthogonalEdgeStyle;rounded=0;orthogonalLoop=1;jettySize=auto;html=1;strokeColor=#B20000;strokeWidth=1;" parent="1" source="zMtAbFJLzHjJMqz4dgE3-67" target="zMtAbFJLzHjJMqz4dgE3-70" edge="1">
          <mxGeometry relative="1" as="geometry" />
        </mxCell>
        <mxCell id="zMtAbFJLzHjJMqz4dgE3-67" value="把画贴起来" style="rounded=0;whiteSpace=wrap;html=1;" parent="1" vertex="1">
          <mxGeometry x="624" y="435" width="70" height="20" as="geometry" />
        </mxCell>
        <mxCell id="zMtAbFJLzHjJMqz4dgE3-70" value="看见冰箱想起食物" style="rounded=0;whiteSpace=wrap;html=1;" parent="1" vertex="1">
          <mxGeometry x="606" y="535" width="106" height="30" as="geometry" />
        </mxCell>
        <mxCell id="zMtAbFJLzHjJMqz4dgE3-68" value="" style="edgeStyle=elbowEdgeStyle;elbow=horizontal;endArrow=classic;html=1;entryX=0;entryY=0.5;entryDx=0;entryDy=0;exitX=1;exitY=0.5;exitDx=0;exitDy=0;" parent="1" source="zMtAbFJLzHjJMqz4dgE3-59" target="zMtAbFJLzHjJMqz4dgE3-64" edge="1">
          <mxGeometry width="50" height="50" relative="1" as="geometry">
            <mxPoint x="440" y="285" as="sourcePoint" />
            <mxPoint x="510" y="235" as="targetPoint" />
            <Array as="points">
              <mxPoint x="610" y="375" />
              <mxPoint x="590" y="395" />
            </Array>
          </mxGeometry>
        </mxCell>
        <mxCell id="zMtAbFJLzHjJMqz4dgE3-69" value="" style="edgeStyle=elbowEdgeStyle;elbow=horizontal;endArrow=classic;html=1;entryX=0;entryY=0.5;entryDx=0;entryDy=0;exitX=1;exitY=0.5;exitDx=0;exitDy=0;" parent="1" source="zMtAbFJLzHjJMqz4dgE3-59" target="zMtAbFJLzHjJMqz4dgE3-67" edge="1">
          <mxGeometry width="50" height="50" relative="1" as="geometry">
            <mxPoint x="580" y="415" as="sourcePoint" />
            <mxPoint x="630" y="375" as="targetPoint" />
            <Array as="points">
              <mxPoint x="610" y="415" />
              <mxPoint x="590" y="425" />
              <mxPoint x="600" y="405" />
            </Array>
          </mxGeometry>
        </mxCell>
        <mxCell id="zMtAbFJLzHjJMqz4dgE3-72" value="故&lt;br&gt;事&lt;br&gt;的&lt;br&gt;结&lt;br&gt;尾" style="text;html=1;align=center;verticalAlign=middle;resizable=0;points=[];autosize=1;" parent="1" vertex="1">
          <mxGeometry x="632" y="452" width="30" height="80" as="geometry" />
        </mxCell>
        <mxCell id="zMtAbFJLzHjJMqz4dgE3-73" value="" style="edgeStyle=elbowEdgeStyle;elbow=vertical;endArrow=classic;html=1;strokeColor=#B20000;strokeWidth=1;exitX=0.5;exitY=1;exitDx=0;exitDy=0;entryX=0.5;entryY=1;entryDx=0;entryDy=0;entryPerimeter=0;" parent="1" source="zMtAbFJLzHjJMqz4dgE3-70" target="zMtAbFJLzHjJMqz4dgE3-4" edge="1">
          <mxGeometry width="50" height="50" relative="1" as="geometry">
            <mxPoint x="240" y="585" as="sourcePoint" />
            <mxPoint x="290" y="535" as="targetPoint" />
            <Array as="points">
              <mxPoint x="440" y="585" />
              <mxPoint x="420" y="595" />
              <mxPoint x="410" y="595" />
            </Array>
          </mxGeometry>
        </mxCell>
        <mxCell id="zMtAbFJLzHjJMqz4dgE3-79" value="" style="endArrow=none;html=1;strokeColor=#B20000;strokeWidth=1;" parent="1" edge="1">
          <mxGeometry width="50" height="50" relative="1" as="geometry">
            <mxPoint x="120" as="sourcePoint" />
            <mxPoint x="470" as="targetPoint" />
          </mxGeometry>
        </mxCell>
        <mxCell id="zMtAbFJLzHjJMqz4dgE3-80" value="" style="endArrow=none;html=1;strokeColor=#B20000;strokeWidth=2;" parent="1" edge="1">
          <mxGeometry width="50" height="50" relative="1" as="geometry">
            <mxPoint x="470" as="sourcePoint" />
            <mxPoint x="470" y="180" as="targetPoint" />
          </mxGeometry>
        </mxCell>
        <mxCell id="zMtAbFJLzHjJMqz4dgE3-81" value="" style="endArrow=none;html=1;strokeColor=#B20000;strokeWidth=2;" parent="1" edge="1">
          <mxGeometry width="50" height="50" relative="1" as="geometry">
            <mxPoint x="120" as="sourcePoint" />
            <mxPoint x="470" as="targetPoint" />
          </mxGeometry>
        </mxCell>
        <mxCell id="zMtAbFJLzHjJMqz4dgE3-82" value="" style="endArrow=none;html=1;strokeColor=#B20000;strokeWidth=2;" parent="1" edge="1">
          <mxGeometry width="50" height="50" relative="1" as="geometry">
            <mxPoint x="600" y="180" as="sourcePoint" />
            <mxPoint x="470" y="180" as="targetPoint" />
          </mxGeometry>
        </mxCell>
        <mxCell id="zMtAbFJLzHjJMqz4dgE3-83" value="" style="endArrow=none;html=1;strokeColor=#B20000;strokeWidth=2;" parent="1" edge="1">
          <mxGeometry width="50" height="50" relative="1" as="geometry">
            <mxPoint x="600" y="180" as="sourcePoint" />
            <mxPoint x="600" y="320" as="targetPoint" />
          </mxGeometry>
        </mxCell>
        <mxCell id="zMtAbFJLzHjJMqz4dgE3-84" value="" style="endArrow=none;html=1;strokeColor=#B20000;strokeWidth=2;" parent="1" edge="1">
          <mxGeometry width="50" height="50" relative="1" as="geometry">
            <mxPoint x="720" y="320" as="sourcePoint" />
            <mxPoint x="600" y="320" as="targetPoint" />
          </mxGeometry>
        </mxCell>
        <mxCell id="zMtAbFJLzHjJMqz4dgE3-85" value="" style="endArrow=none;html=1;strokeColor=#B20000;strokeWidth=2;" parent="1" edge="1">
          <mxGeometry width="50" height="50" relative="1" as="geometry">
            <mxPoint x="720" y="500" as="sourcePoint" />
            <mxPoint x="720" y="320" as="targetPoint" />
          </mxGeometry>
        </mxCell>
        <mxCell id="zMtAbFJLzHjJMqz4dgE3-86" value="" style="endArrow=none;html=1;strokeColor=#B20000;strokeWidth=2;" parent="1" edge="1">
          <mxGeometry width="50" height="50" relative="1" as="geometry">
            <mxPoint x="820" y="500" as="sourcePoint" />
            <mxPoint x="720" y="500" as="targetPoint" />
          </mxGeometry>
        </mxCell>
        <mxCell id="zMtAbFJLzHjJMqz4dgE3-87" value="" style="endArrow=classic;html=1;strokeColor=#000;strokeWidth=1;" parent="1" edge="1">
          <mxGeometry width="50" height="50" relative="1" as="geometry">
            <mxPoint x="170" as="sourcePoint" />
            <mxPoint x="450" as="targetPoint" />
          </mxGeometry>
        </mxCell>
        <mxCell id="zMtAbFJLzHjJMqz4dgE3-88" value="" style="endArrow=classic;html=1;strokeColor=#000;strokeWidth=1;" parent="1" edge="1">
          <mxGeometry width="50" height="50" relative="1" as="geometry">
            <mxPoint x="470" y="30" as="sourcePoint" />
            <mxPoint x="470" y="150" as="targetPoint" />
          </mxGeometry>
        </mxCell>
        <mxCell id="zMtAbFJLzHjJMqz4dgE3-89" value="" style="endArrow=classic;html=1;strokeColor=#000;strokeWidth=1;" parent="1" edge="1">
          <mxGeometry width="50" height="50" relative="1" as="geometry">
            <mxPoint x="500" y="180" as="sourcePoint" />
            <mxPoint x="580" y="180" as="targetPoint" />
          </mxGeometry>
        </mxCell>
        <mxCell id="zMtAbFJLzHjJMqz4dgE3-90" value="" style="endArrow=classic;html=1;strokeColor=#000;strokeWidth=1;" parent="1" edge="1">
          <mxGeometry width="50" height="50" relative="1" as="geometry">
            <mxPoint x="600" y="210" as="sourcePoint" />
            <mxPoint x="600" y="300" as="targetPoint" />
          </mxGeometry>
        </mxCell>
        <mxCell id="zMtAbFJLzHjJMqz4dgE3-91" value="" style="endArrow=classic;html=1;strokeColor=#000;strokeWidth=1;" parent="1" edge="1">
          <mxGeometry width="50" height="50" relative="1" as="geometry">
            <mxPoint x="620" y="320" as="sourcePoint" />
            <mxPoint x="710" y="320" as="targetPoint" />
          </mxGeometry>
        </mxCell>
        <mxCell id="zMtAbFJLzHjJMqz4dgE3-92" value="" style="endArrow=classic;html=1;strokeColor=#000;strokeWidth=1;" parent="1" edge="1">
          <mxGeometry width="50" height="50" relative="1" as="geometry">
            <mxPoint x="720" y="360" as="sourcePoint" />
            <mxPoint x="720" y="490" as="targetPoint" />
          </mxGeometry>
        </mxCell>
        <mxCell id="zMtAbFJLzHjJMqz4dgE3-93" value="" style="endArrow=classic;html=1;strokeColor=#000;strokeWidth=1;" parent="1" edge="1">
          <mxGeometry width="50" height="50" relative="1" as="geometry">
            <mxPoint x="730" y="500" as="sourcePoint" />
            <mxPoint x="820" y="500" as="targetPoint" />
          </mxGeometry>
        </mxCell>
        <mxCell id="zMtAbFJLzHjJMqz4dgE3-96" value="故事最后的作业是要自己按照自己的思维去把故事延续下去。。。" style="text;html=1;align=center;verticalAlign=middle;resizable=0;points=[];autosize=1;" parent="1" vertex="1">
          <mxGeometry x="110" y="330" width="360" height="20" as="geometry" />
        </mxCell>
        <mxCell id="zMtAbFJLzHjJMqz4dgE3-97" value="讲故事跟写作一样拉，都是对符合与不符合生活常理的一种思维叙述与描述形式&lt;br&gt;" style="text;html=1;align=center;verticalAlign=middle;resizable=0;points=[];autosize=1;" parent="1" vertex="1">
          <mxGeometry x="95" y="435" width="440" height="20" as="geometry" />
        </mxCell>
        <mxCell id="zMtAbFJLzHjJMqz4dgE3-98" value="要领：清晰、易懂" style="text;html=1;align=center;verticalAlign=middle;resizable=0;points=[];autosize=1;" parent="1" vertex="1">
          <mxGeometry x="135" y="492" width="110" height="20" as="geometry" />
        </mxCell>
        <mxCell id="aU6ZqE62vAwaajKzGN5h-2" value="至于文艺复兴带来的工业革命，使得欧美的科技得以领先于全球，并驱动了全人类的发展！（）&lt;br&gt;特别是美国，科技、文化、经济、军事、做到了全球第一，&lt;br&gt;让美元称霸了全球，这得益于&lt;b&gt;“布林顿森林体系”&lt;/b&gt;的设计，其本质就是美元优先&lt;br&gt;的经济霸权策划！一个出生就是现代化支撑的国度，策划和布局不出一套完整的体系，&lt;br&gt;是不是愧对于这个&lt;b&gt;“现代化国家”&lt;/b&gt;的称号？" style="text;html=1;align=left;verticalAlign=middle;resizable=0;points=[];autosize=1;strokeColor=none;fillColor=none;" parent="1" vertex="1">
          <mxGeometry x="43" y="-245" width="522" height="84" as="geometry" />
        </mxCell>
        <mxCell id="Zxb8oTzP0S4Fo6ui89q0-3" value="" style="shape=orEllipse;perimeter=ellipsePerimeter;whiteSpace=wrap;html=1;backgroundOutline=1;strokeWidth=3;" vertex="1" parent="1">
          <mxGeometry x="9" y="-1050" width="280" height="280" as="geometry" />
        </mxCell>
        <mxCell id="Zxb8oTzP0S4Fo6ui89q0-4" value="" style="shape=orEllipse;perimeter=ellipsePerimeter;whiteSpace=wrap;html=1;backgroundOutline=1;strokeColor=#CC0000;strokeWidth=3;" vertex="1" parent="1">
          <mxGeometry x="94" y="-965" width="110" height="110" as="geometry" />
        </mxCell>
        <mxCell id="Zxb8oTzP0S4Fo6ui89q0-5" value="" style="shape=orEllipse;perimeter=ellipsePerimeter;whiteSpace=wrap;html=1;backgroundOutline=1;strokeWidth=3;" vertex="1" parent="1">
          <mxGeometry x="539" y="-1050" width="280" height="280" as="geometry" />
        </mxCell>
        <mxCell id="Zxb8oTzP0S4Fo6ui89q0-6" value="" style="shape=orEllipse;perimeter=ellipsePerimeter;whiteSpace=wrap;html=1;backgroundOutline=1;strokeColor=#CC0000;strokeWidth=3;" vertex="1" parent="1">
          <mxGeometry x="624" y="-965" width="110" height="110" as="geometry" />
        </mxCell>
        <mxCell id="Zxb8oTzP0S4Fo6ui89q0-7" value="" style="endArrow=none;html=1;rounded=0;entryX=0.514;entryY=0.696;entryDx=0;entryDy=0;exitX=0.486;exitY=0.7;exitDx=0;exitDy=0;exitPerimeter=0;entryPerimeter=0;strokeColor=#CC0000;strokeWidth=3;" edge="1" parent="1" source="Zxb8oTzP0S4Fo6ui89q0-3" target="Zxb8oTzP0S4Fo6ui89q0-5">
          <mxGeometry width="50" height="50" relative="1" as="geometry">
            <mxPoint x="149" y="-850" as="sourcePoint" />
            <mxPoint x="199" y="-900" as="targetPoint" />
          </mxGeometry>
        </mxCell>
        <mxCell id="Zxb8oTzP0S4Fo6ui89q0-8" value="" style="endArrow=none;html=1;rounded=0;exitX=0.5;exitY=1;exitDx=0;exitDy=0;entryX=0.5;entryY=1;entryDx=0;entryDy=0;strokeWidth=3;" edge="1" parent="1" source="Zxb8oTzP0S4Fo6ui89q0-3" target="Zxb8oTzP0S4Fo6ui89q0-5">
          <mxGeometry width="50" height="50" relative="1" as="geometry">
            <mxPoint x="319" y="-720" as="sourcePoint" />
            <mxPoint x="369" y="-770" as="targetPoint" />
          </mxGeometry>
        </mxCell>
        <mxCell id="Zxb8oTzP0S4Fo6ui89q0-10" value="" style="html=1;shadow=0;dashed=0;align=center;verticalAlign=middle;shape=mxgraph.arrows2.jumpInArrow;dy=15;dx=38;arrowHead=55;rotation=105;" vertex="1" parent="1">
          <mxGeometry x="227.76" y="-1057.66" width="133.03" height="153.02" as="geometry" />
        </mxCell>
        <mxCell id="Zxb8oTzP0S4Fo6ui89q0-11" value="" style="html=1;shadow=0;dashed=0;align=center;verticalAlign=middle;shape=mxgraph.arrows2.jumpInArrow;dy=15;dx=38;arrowHead=55;" vertex="1" parent="1">
          <mxGeometry x="509" y="-1110" width="130" height="200" as="geometry" />
        </mxCell>
        <mxCell id="Zxb8oTzP0S4Fo6ui89q0-12" value="&lt;font style=&quot;font-size: 24px;&quot;&gt;&lt;b&gt;A&lt;/b&gt;&lt;/font&gt;" style="text;html=1;align=center;verticalAlign=middle;resizable=0;points=[];autosize=1;strokeColor=none;fillColor=none;" vertex="1" parent="1">
          <mxGeometry x="119" y="-930" width="40" height="40" as="geometry" />
        </mxCell>
        <mxCell id="Zxb8oTzP0S4Fo6ui89q0-13" value="&lt;font style=&quot;font-size: 24px;&quot;&gt;&lt;b&gt;B&lt;/b&gt;&lt;/font&gt;" style="text;html=1;align=center;verticalAlign=middle;resizable=0;points=[];autosize=1;strokeColor=none;fillColor=none;" vertex="1" parent="1">
          <mxGeometry x="669" y="-940" width="40" height="40" as="geometry" />
        </mxCell>
        <mxCell id="Zxb8oTzP0S4Fo6ui89q0-14" value="a" style="text;html=1;align=center;verticalAlign=middle;resizable=0;points=[];autosize=1;strokeColor=none;fillColor=none;" vertex="1" parent="1">
          <mxGeometry x="124" y="-864" width="30" height="30" as="geometry" />
        </mxCell>
        <mxCell id="Zxb8oTzP0S4Fo6ui89q0-16" value="b" style="text;html=1;align=center;verticalAlign=middle;resizable=0;points=[];autosize=1;strokeColor=none;fillColor=none;" vertex="1" parent="1">
          <mxGeometry x="672" y="-865" width="30" height="30" as="geometry" />
        </mxCell>
        <mxCell id="Zxb8oTzP0S4Fo6ui89q0-17" value="c" style="text;html=1;align=center;verticalAlign=middle;resizable=0;points=[];autosize=1;strokeColor=none;fillColor=none;" vertex="1" parent="1">
          <mxGeometry x="130" y="-780" width="30" height="30" as="geometry" />
        </mxCell>
        <mxCell id="Zxb8oTzP0S4Fo6ui89q0-18" value="d" style="text;html=1;align=center;verticalAlign=middle;resizable=0;points=[];autosize=1;strokeColor=none;fillColor=none;" vertex="1" parent="1">
          <mxGeometry x="663" y="-777" width="30" height="30" as="geometry" />
        </mxCell>
        <mxCell id="Zxb8oTzP0S4Fo6ui89q0-19" value="&lt;b&gt;&lt;font style=&quot;font-size: 18px;&quot;&gt;求证：黑边与红边同心圆从A点到B点，经过相同的路径，线段ab=cd，所以红边周长与黑边周长相等？&lt;/font&gt;&lt;/b&gt;" style="text;html=1;align=center;verticalAlign=middle;resizable=0;points=[];autosize=1;strokeColor=none;fillColor=none;" vertex="1" parent="1">
          <mxGeometry x="-6" y="-745" width="835" height="34" as="geometry" />
        </mxCell>
      </root>
    </mxGraphModel>
  </diagram>
</mxfile>
